# xmcd CD database file
#
# Track frame offsets:
#	182
#	14670
#	25582
#	40820
#	51967
#	66070
#	81700
#	93095
#	110772
#	124282
#
# Disc length: 1872 seconds
#
# Revision: 1
# Processed by: cddbd v1.5.2PL0 Copyright (c) Steve Scherf et al.
# Submitted via: CDex 1.81
#
DISCID=86074e0a
DTITLE=Django Reinhardt - Django Reinhardt
DYEAR=1900
DGENRE=Jazz
TTITLE0=Nuages
TTITLE1=Saint Louis Blues
TTITLE2=Old Man River
TTITLE3=Louise
TTITLE4=Swingtime In Springtime
TTITLE5=Blues en Mineur
TTITLE6=Swing 39
TTITLE7=Crepuscule
TTITLE8=Swing Guitars
TTITLE9=Dinah
EXTD=
EXTT0=
EXTT1=
EXTT2=
EXTT3=
EXTT4=
EXTT5=
EXTT6=
EXTT7=
EXTT8=
EXTT9=
PLAYORDER=
